<?xml version="1.0" standalone="no"?>
<!DOCTYPE svg PUBLIC "-//W3C//DTD SVG 20010904//EN"
 "http://www.w3.org/TR/2001/REC-SVG-20010904/DTD/svg10.dtd">
<svg version="1.0" xmlns="http://www.w3.org/2000/svg"
 width="400.000000pt" height="400.000000pt" viewBox="0 0 400.000000 400.000000"
 preserveAspectRatio="xMidYMid meet">

<g transform="translate(0.000000,400.000000) scale(0.100000,-0.100000)"
fill="#000000" stroke="none">
<path d="M1903 3009 c-48 -14 -83 -62 -83 -114 0 -24 4 -54 9 -68 6 -16 4 -43
-8 -85 -17 -62 -17 -63 -79 -92 -224 -106 -298 -383 -159 -592 39 -58 40 -62
29 -102 -6 -22 -16 -54 -23 -71 l-12 -30 -18 60 c-11 33 -21 74 -23 90 -3 17
-23 104 -45 195 -22 91 -45 193 -52 227 -7 38 -16 60 -22 56 -6 -3 -7 -1 -3 6
4 6 0 46 -9 89 -16 71 -23 99 -55 220 l-11 42 -74 0 c-41 0 -75 -1 -75 -3 0
-1 5 -18 10 -37 6 -19 15 -53 19 -75 8 -38 51 -206 193 -750 33 -126 62 -243
65 -260 9 -49 19 -55 98 -55 l73 0 21 68 c11 37 25 92 32 122 6 30 15 59 19
63 4 5 38 -1 75 -12 90 -28 163 -26 250 5 39 13 77 27 86 30 12 4 18 -3 22
-28 4 -18 19 -80 35 -138 l28 -105 78 0 78 0 14 40 c8 22 23 76 33 120 11 44
33 134 51 200 18 66 40 156 50 201 10 44 25 102 33 130 8 27 27 96 41 154 15
58 38 147 51 197 37 138 39 133 -50 133 -63 0 -75 -3 -75 -17 0 -9 -14 -73
-30 -142 -17 -69 -42 -175 -57 -236 -14 -60 -38 -162 -53 -225 -26 -107 -44
-191 -45 -215 0 -5 -3 -14 -7 -20 -3 -5 -11 -36 -18 -67 -7 -32 -17 -58 -21
-58 -8 0 -30 66 -35 107 -1 13 -5 32 -9 43 -4 13 7 47 31 95 97 197 29 422
-161 532 -35 21 -51 36 -53 54 -1 13 -10 43 -18 67 -15 40 -15 44 2 64 26 28
25 104 -1 140 -11 15 -37 34 -58 43 -42 17 -40 17 -84 4z m110 -47 c30 -33 39
-66 26 -98 -9 -24 -11 -25 -101 -22 l-93 3 -3 41 c-7 96 106 146 171 76z m-68
-262 c3 -5 1 -10 -4 -10 -6 0 -11 5 -11 10 0 6 2 10 4 10 3 0 8 -4 11 -10z
m19 -77 c17 -54 64 -237 76 -298 5 -22 13 -52 19 -67 5 -14 19 -64 30 -110 11
-45 27 -104 35 -131 l15 -47 -47 -24 c-231 -117 -502 18 -553 277 -30 150 52
322 189 395 66 35 116 49 179 51 41 1 42 0 57 -46z m181 -31 c138 -104 191
-297 124 -451 -31 -72 -46 -82 -55 -34 -3 21 -17 76 -30 122 -13 46 -24 89
-24 96 0 8 -5 26 -11 42 -7 15 -13 35 -14 43 -1 8 -14 59 -29 114 -14 54 -26
100 -26 102 0 11 20 0 65 -34z"/>
<path d="M1705 2540 c-3 -5 -19 -10 -34 -10 -36 0 -51 -17 -51 -57 0 -29 3
-33 25 -33 28 0 33 -21 9 -41 -11 -9 -14 -22 -10 -45 4 -17 2 -42 -2 -55 -5
-13 -7 -30 -5 -36 7 -21 33 -15 33 7 0 27 7 25 37 -10 13 -16 31 -30 38 -30
30 0 35 -88 7 -128 -24 -35 -34 -62 -22 -62 5 0 12 5 15 10 11 18 36 11 65
-19 32 -31 139 -95 147 -87 11 11 -28 114 -52 136 -17 16 -25 34 -25 56 0 40
21 54 68 47 25 -4 32 -2 32 11 0 16 4 26 29 74 9 17 9 28 -1 45 -6 12 -13 49
-14 82 -1 54 -4 62 -35 87 -38 32 -83 43 -139 34 -22 -3 -40 -2 -40 3 0 5 -14
14 -31 20 -39 13 -36 13 -44 1z"/>
<path d="M753 1560 c-61 -25 -69 -116 -13 -145 36 -19 61 -19 85 -2 24 18 11
39 -18 28 -36 -14 -67 4 -67 37 0 38 22 56 60 49 30 -6 50 8 34 23 -15 14 -58
20 -81 10z"/>
<path d="M903 1560 c-54 -23 -66 -96 -22 -136 31 -28 96 -25 120 5 24 29 24
82 2 110 -21 24 -68 35 -100 21z m75 -42 c20 -20 14 -56 -13 -74 -23 -15 -27
-15 -50 0 -44 29 -28 86 25 86 14 0 31 -5 38 -12z"/>
<path d="M2515 1561 c-33 -14 -47 -38 -47 -77 0 -50 30 -79 81 -79 55 0 81 26
81 80 0 28 -6 47 -18 58 -23 21 -70 29 -97 18z m75 -51 c14 -26 5 -57 -21 -71
-43 -23 -92 44 -57 79 20 20 66 15 78 -8z"/>
<path d="M1050 1485 c0 -60 3 -75 15 -75 11 0 15 12 15 45 0 48 12 58 30 25
14 -27 26 -25 55 8 l24 27 1 -52 c0 -40 4 -53 15 -53 12 0 15 15 15 75 0 69
-2 75 -20 75 -12 0 -31 -12 -44 -26 l-22 -27 -21 27 c-12 14 -30 26 -42 26
-19 0 -21 -5 -21 -75z"/>
<path d="M1260 1485 c0 -60 3 -75 15 -75 11 0 15 13 15 53 l0 52 25 -30 25
-30 25 28 25 28 0 -50 c0 -44 3 -51 20 -51 18 0 20 7 20 75 0 71 -1 75 -22 75
-12 0 -33 -12 -45 -27 l-23 -28 -21 28 c-11 15 -29 27 -40 27 -17 0 -19 -8
-19 -75z"/>
<path d="M1460 1501 c0 -53 3 -62 27 -81 29 -22 72 -22 100 1 19 17 18 139 -2
139 -10 0 -15 -15 -17 -56 -2 -40 -8 -60 -20 -67 -29 -19 -48 9 -48 69 0 47
-2 54 -20 54 -18 0 -20 -7 -20 -59z"/>
<path d="M1640 1485 c0 -59 3 -75 14 -75 11 0 16 14 18 46 l3 46 34 -46 c19
-25 43 -46 53 -46 16 0 18 9 18 75 0 68 -2 75 -20 75 -17 0 -20 -7 -20 -46 l0
-47 -35 47 c-52 68 -65 62 -65 -29z"/>
<path d="M1810 1485 c0 -68 2 -75 20 -75 18 0 20 7 20 75 0 68 -2 75 -20 75
-18 0 -20 -7 -20 -75z"/>
<path d="M1870 1545 c0 -9 9 -15 25 -15 24 0 25 -3 25 -60 0 -47 3 -60 15 -60
12 0 15 13 15 60 0 57 1 60 25 60 16 0 25 6 25 15 0 12 -14 15 -65 15 -51 0
-65 -3 -65 -15z"/>
<path d="M2039 1506 c17 -29 31 -63 31 -75 0 -12 6 -21 15 -21 10 0 15 10 15
30 0 16 13 48 29 72 25 36 27 44 13 47 -9 2 -26 -9 -39 -25 -24 -30 -24 -30
-42 4 -6 12 -21 22 -32 22 -19 0 -19 -3 10 -54z"/>
<path d="M2245 1495 c13 -36 27 -70 30 -76 13 -20 34 -8 46 26 7 19 16 35 19
35 3 0 12 -16 19 -36 19 -54 41 -41 72 44 27 72 27 73 6 70 -14 -2 -25 -16
-35 -47 l-15 -45 -17 45 c-10 24 -23 44 -30 44 -7 0 -20 -20 -30 -45 -11 -28
-20 -39 -23 -30 -3 8 -9 29 -14 45 -6 20 -17 31 -31 33 l-22 3 25 -66z"/>
<path d="M2660 1485 c0 -60 3 -75 15 -75 11 0 15 12 15 45 0 48 12 57 32 25 7
-11 18 -20 25 -20 7 0 17 9 23 20 18 33 30 23 30 -25 0 -33 4 -45 15 -45 12 0
15 15 15 75 0 67 -2 75 -19 75 -11 0 -29 -12 -41 -27 l-22 -28 -23 28 c-13 15
-33 27 -45 27 -18 0 -20 -6 -20 -75z"/>
<path d="M2870 1485 l0 -75 60 0 c47 0 60 3 60 15 0 11 -12 15 -45 15 -33 0
-45 4 -45 15 0 11 11 15 40 15 29 0 40 4 40 15 0 11 -11 15 -40 15 -29 0 -40
4 -40 15 0 11 11 15 40 15 29 0 40 4 40 15 0 12 -13 15 -55 15 l-55 0 0 -75z"/>
<path d="M3010 1485 c0 -68 2 -75 20 -75 17 0 20 7 20 43 l1 42 37 -42 c58
-66 72 -59 72 32 0 68 -2 75 -19 75 -16 0 -20 -8 -23 -46 l-3 -47 -33 47 c-20
27 -41 46 -53 46 -17 0 -19 -7 -19 -75z"/>
<path d="M1772 1334 c-23 -16 -30 -58 -10 -70 6 -4 25 -10 42 -14 18 -3 31
-12 31 -20 0 -19 -42 -25 -61 -9 -13 10 -17 10 -25 -2 -19 -31 57 -53 102 -29
12 7 19 21 19 40 0 32 -9 40 -53 49 -48 10 -46 31 2 31 46 0 54 16 15 30 -33
13 -36 13 -62 -6z"/>
<path d="M2825 1341 c-32 -14 -47 -37 -48 -77 -1 -51 41 -89 91 -80 19 3 43
13 53 22 24 22 25 84 2 113 -20 24 -68 35 -98 22z m79 -63 c8 -22 6 -32 -9
-48 -22 -24 -42 -25 -67 -3 -38 34 -15 86 37 81 22 -2 32 -10 39 -30z"/>
<path d="M592 1263 l3 -78 58 -3 c52 -3 58 -1 55 15 -2 11 -13 19 -28 20 -14
0 -33 1 -42 2 -34 2 -7 31 28 31 24 0 34 5 34 15 0 10 -11 15 -35 15 -24 0
-35 5 -35 15 0 11 11 15 40 15 29 0 40 4 40 15 0 12 -13 15 -60 15 l-61 0 3
-77z"/>
<path d="M740 1260 c0 -63 3 -80 14 -80 11 0 16 14 18 51 l3 50 38 -50 c55
-74 67 -69 67 29 0 75 -1 80 -21 80 -20 0 -21 -4 -16 -45 4 -25 3 -45 -1 -45
-4 0 -22 21 -41 45 -50 67 -61 61 -61 -35z"/>
<path d="M900 1325 c0 -9 9 -15 25 -15 24 0 25 -2 25 -65 0 -50 3 -65 15 -65
10 0 15 16 17 63 3 56 5 62 26 65 12 2 22 10 22 18 0 11 -15 14 -65 14 -51 0
-65 -3 -65 -15z"/>
<path d="M1052 1263 l3 -78 58 -3 c52 -3 58 -1 55 15 -2 12 -13 18 -33 19 -44
3 -45 3 -45 19 0 10 11 15 35 15 24 0 35 5 35 15 0 10 -11 15 -35 15 -24 0
-35 5 -35 15 0 11 11 15 40 15 29 0 40 4 40 15 0 12 -13 15 -60 15 l-61 0 3
-77z"/>
<path d="M1200 1260 c0 -64 3 -80 15 -80 8 0 16 6 16 13 1 6 2 19 3 27 2 21
28 13 49 -16 10 -13 25 -24 33 -24 18 0 18 5 -1 34 -14 21 -14 24 0 36 8 7 15
23 15 36 0 37 -26 54 -81 54 l-49 0 0 -80z m95 40 c10 -17 -16 -41 -39 -38
-19 3 -28 22 -19 41 6 11 51 9 58 -3z"/>
<path d="M1362 1263 c2 -61 6 -78 18 -78 8 0 16 10 18 22 3 17 11 23 40 25 27
2 40 10 51 29 13 24 13 29 -2 53 -15 23 -24 26 -73 26 l-55 0 3 -77z m93 22
c0 -14 -8 -21 -27 -23 -24 -3 -28 0 -28 23 0 23 4 26 28 23 19 -2 27 -9 27
-23z"/>
<path d="M1520 1260 c0 -64 3 -80 15 -80 9 0 15 9 15 24 0 39 20 42 47 7 13
-17 31 -31 39 -31 18 0 18 5 -1 34 -14 21 -14 24 0 36 8 7 15 23 15 36 0 37
-26 54 -81 54 l-49 0 0 -80z m95 40 c9 -15 -14 -40 -36 -40 -22 0 -33 16 -25
35 6 17 52 20 61 5z"/>
<path d="M1680 1259 c0 -71 2 -80 18 -77 14 3 17 16 20 81 3 72 1 77 -18 77
-18 0 -20 -6 -20 -81z"/>
<path d="M1900 1260 l0 -81 58 3 c43 2 57 7 57 18 0 11 -11 15 -40 16 -29 0
-41 5 -43 17 -3 14 4 17 37 17 30 0 41 4 41 15 0 11 -11 15 -40 15 -57 0 -55
28 2 32 23 2 43 9 46 16 3 9 -13 12 -57 12 l-61 0 0 -80z"/>
<path d="M2080 1265 c0 -68 2 -75 20 -75 17 0 20 7 20 47 l0 46 36 -46 c21
-26 45 -47 55 -47 17 0 19 8 19 75 0 68 -2 75 -19 75 -16 0 -20 -8 -23 -46
l-3 -47 -33 47 c-20 27 -41 46 -53 46 -17 0 -19 -7 -19 -75z"/>
<path d="M2260 1265 l0 -75 60 0 c46 0 60 3 60 14 0 10 -14 16 -42 18 -53 4
-56 22 -5 26 23 2 37 8 37 17 0 9 -14 15 -37 17 -51 4 -48 22 5 26 28 2 42 8
42 18 0 11 -14 14 -60 14 l-60 0 0 -75z"/>
<path d="M2392 1328 c3 -7 14 -14 26 -16 20 -3 22 -9 22 -63 0 -52 2 -59 20
-59 18 0 20 7 20 60 0 53 2 60 19 60 11 0 23 5 27 11 4 6 19 -19 33 -57 31
-81 53 -93 72 -40 7 20 16 36 19 36 3 0 12 -16 19 -36 19 -54 41 -41 72 44 25
68 26 72 8 72 -12 0 -23 -11 -29 -27 -26 -70 -26 -71 -42 -23 -8 25 -20 45
-28 45 -7 0 -20 -20 -30 -45 -11 -28 -20 -39 -23 -30 -3 8 -10 29 -15 45 l-9
30 -92 3 c-72 2 -92 0 -89 -10z"/>
<path d="M2970 1265 c0 -60 3 -75 15 -75 8 0 15 9 15 19 0 33 22 36 45 8 11
-15 29 -27 39 -27 17 0 17 2 3 24 -14 21 -14 26 -2 36 18 15 20 61 3 78 -7 7
-36 12 -65 12 l-53 0 0 -75z m95 25 c0 -10 -12 -16 -32 -18 -28 -3 -33 0 -33
18 0 18 5 21 33 18 20 -2 32 -8 32 -18z"/>
<path d="M3130 1265 c0 -68 2 -75 20 -75 15 0 20 7 20 27 l0 27 28 -27 c15
-15 36 -27 46 -27 15 0 12 7 -13 39 l-32 40 32 35 c29 34 30 36 10 36 -12 0
-33 -12 -46 -27 l-24 -28 -1 28 c0 20 -5 27 -20 27 -18 0 -20 -7 -20 -75z"/>
<path d="M590 1075 l0 -55 47 0 c58 0 52 15 -7 19 -33 2 -24 31 10 31 17 0 30
5 30 10 0 6 -13 10 -30 10 -16 0 -30 5 -30 10 0 6 14 10 30 10 17 0 30 5 30
10 0 6 -18 10 -40 10 l-40 0 0 -55z"/>
<path d="M1584 1104 c4 -15 10 -39 13 -55 7 -38 30 -37 38 1 10 43 23 46 31 5
9 -51 31 -44 43 15 13 61 13 60 3 60 -5 0 -13 -17 -18 -37 l-10 -38 -10 35
c-11 38 -37 47 -42 15 -7 -35 -20 -38 -27 -6 -4 17 -11 31 -17 31 -6 0 -7 -11
-4 -26z"/>
<path d="M2200 1075 l0 -55 46 0 c27 0 43 4 39 10 -3 6 -20 10 -36 10 -38 0
-34 24 4 28 33 4 26 22 -9 22 -13 0 -24 5 -24 10 0 6 14 10 30 10 17 0 30 5
30 10 0 6 -18 10 -40 10 l-40 0 0 -55z"/>
<path d="M2408 1108 c-3 -7 -3 -30 0 -50 6 -50 27 -50 26 0 -3 58 -3 62 -13
62 -5 0 -11 -6 -13 -12z"/>
<path d="M701 1055 c1 -28 3 -32 6 -15 7 36 24 55 34 38 5 -7 9 -24 10 -38 1
-23 2 -22 8 5 3 17 13 30 21 30 8 0 18 -13 22 -30 6 -26 6 -25 5 10 l-2 40
-52 0 -53 0 1 -40z"/>
<path d="M840 1044 c0 -33 4 -54 11 -54 6 0 9 6 6 14 -4 10 2 16 21 18 24 3
27 7 27 38 0 33 -2 35 -32 36 l-33 1 0 -53z m54 3 c-3 -9 -10 -17 -15 -17 -14
0 -22 27 -15 47 6 15 8 15 22 2 8 -9 12 -23 8 -32z"/>
<path d="M940 1085 c-7 -8 -10 -25 -6 -40 5 -20 13 -25 36 -25 23 0 31 5 36
25 7 29 -10 55 -36 55 -10 0 -23 -7 -30 -15z m48 -27 c-2 -13 -10 -23 -18 -23
-8 0 -16 10 -18 23 -3 17 2 22 18 22 16 0 21 -5 18 -22z"/>
<path d="M1030 1088 c0 -24 18 -68 29 -68 5 0 12 10 15 23 l7 22 9 -22 c12
-30 26 -29 34 1 3 13 9 31 12 40 3 9 2 16 -4 16 -5 0 -13 -10 -16 -22 l-7 -23
-11 23 c-6 12 -14 22 -18 22 -4 0 -11 -10 -14 -22 l-6 -23 -15 25 c-10 18 -14
20 -15 8z"/>
<path d="M1160 1085 c-20 -24 -4 -65 25 -65 13 0 27 5 31 11 4 7 0 9 -14 5
-11 -4 -23 -2 -27 4 -4 6 4 10 19 10 19 0 26 5 26 19 0 17 -18 31 -40 31 -4 0
-13 -7 -20 -15z m40 -16 c0 -5 -7 -9 -15 -9 -15 0 -20 12 -9 23 8 8 24 -1 24
-14z"/>
<path d="M1245 1091 c-10 -9 -5 -71 5 -71 6 0 10 14 10 30 0 20 5 30 15 30 8
0 15 4 15 9 0 10 -37 11 -45 2z"/>
<path d="M1313 1060 c0 -25 2 -35 4 -22 2 12 2 32 0 45 -2 12 -4 2 -4 -23z"/>
<path d="M1350 1058 c0 -46 17 -51 22 -6 4 46 28 49 28 4 0 -20 5 -36 11 -36
6 0 9 16 7 38 -3 34 -5 37 -35 37 -32 1 -33 -1 -33 -37z"/>
<path d="M1451 1087 c-25 -25 1 -76 34 -63 9 3 15 0 15 -10 0 -12 -6 -15 -25
-10 -15 4 -25 2 -25 -4 0 -7 14 -10 33 -8 31 3 32 4 35 54 3 50 2 51 -26 52
-16 0 -34 -4 -41 -11z m44 -27 c0 -13 -6 -25 -12 -27 -16 -6 -27 21 -19 43 9
23 31 11 31 -16z"/>
<path d="M1740 1085 c-7 -9 -10 -25 -6 -40 6 -22 11 -26 39 -23 25 2 33 8 35
26 7 44 -41 70 -68 37z m48 -27 c-2 -13 -10 -23 -18 -23 -8 0 -16 10 -18 23
-3 17 2 22 18 22 16 0 21 -5 18 -22z"/>
<path d="M1830 1059 c0 -47 17 -52 22 -6 2 17 8 32 13 32 6 0 11 -15 13 -32 2
-18 7 -33 12 -33 5 0 10 15 12 33 2 17 8 32 13 32 6 0 11 -15 13 -32 2 -18 8
-33 13 -33 6 0 9 17 7 38 l-3 37 -57 1 -58 1 0 -38z"/>
<path d="M1980 1086 c-20 -26 -8 -61 23 -64 15 -2 27 1 27 6 0 6 -9 8 -20 5
-11 -3 -20 0 -20 6 0 6 11 11 25 11 27 0 33 18 13 38 -16 16 -33 15 -48 -2z
m40 -17 c0 -5 -7 -9 -15 -9 -15 0 -20 12 -9 23 8 8 24 -1 24 -14z"/>
<path d="M2060 1059 c0 -21 5 -39 10 -39 6 0 10 13 10 29 0 28 15 49 27 38 3
-4 9 -21 14 -39 8 -33 8 -33 6 7 -2 38 -4 40 -34 42 -32 1 -33 0 -33 -38z"/>
<path d="M2310 1058 c0 -46 18 -51 22 -5 2 17 8 32 13 32 6 0 11 -15 13 -32 2
-18 8 -33 13 -33 6 0 9 17 7 38 -3 34 -5 37 -35 37 -32 1 -33 -1 -33 -37z"/>
<path d="M2460 1059 c0 -21 5 -39 10 -39 6 0 10 14 10 30 0 17 5 30 10 30 19
0 10 16 -10 17 -17 2 -20 -4 -20 -38z"/>
<path d="M2520 1080 c-15 -28 4 -60 35 -60 14 0 25 5 25 11 0 6 -8 8 -19 4
-11 -3 -22 -1 -26 5 -4 6 4 10 19 10 30 0 42 16 26 35 -18 21 -47 18 -60 -5z
m48 -8 c2 -7 -3 -12 -12 -12 -9 0 -16 7 -16 16 0 17 22 14 28 -4z"/>
<path d="M2610 1043 c0 -29 5 -53 10 -53 6 0 10 7 10 15 0 8 9 15 20 15 24 0
42 37 29 62 -6 10 -20 16 -39 16 -29 -1 -30 -2 -30 -55z m54 4 c-3 -9 -10 -17
-15 -17 -14 0 -22 27 -15 47 6 15 8 15 22 2 8 -9 12 -23 8 -32z"/>
<path d="M2709 1095 c-1 0 -3 -17 -4 -37 -5 -45 11 -51 20 -8 4 17 11 30 16
30 5 0 9 4 9 9 0 7 -27 11 -41 6z"/>
<path d="M2770 1085 c-7 -8 -10 -25 -6 -40 5 -20 13 -25 36 -25 17 0 30 5 30
11 0 6 -8 8 -19 4 -11 -3 -22 -1 -26 5 -4 6 4 10 18 10 31 0 38 9 26 31 -12
23 -42 25 -59 4z m40 -10 c0 -8 -4 -15 -9 -15 -13 0 -22 16 -14 24 11 11 23 6
23 -9z"/>
<path d="M2860 1057 c0 -44 16 -41 22 3 4 36 22 31 26 -7 2 -18 8 -33 13 -33
6 0 9 17 7 38 -3 34 -5 37 -35 38 -32 1 -33 0 -33 -39z"/>
<path d="M2960 1086 c-20 -26 -8 -61 23 -64 15 -2 27 1 27 6 0 6 -9 8 -20 5
-11 -3 -20 0 -20 6 0 6 11 11 25 11 27 0 33 18 13 38 -16 16 -33 15 -48 -2z
m40 -17 c0 -5 -7 -9 -15 -9 -15 0 -20 12 -9 23 8 8 24 -1 24 -14z"/>
<path d="M3042 1063 c3 -35 6 -38 36 -41 32 -3 32 -3 31 40 l-1 43 -10 -38
c-12 -45 -32 -44 -36 1 -2 18 -8 32 -13 32 -6 0 -9 -17 -7 -37z"/>
<path d="M3140 1057 c0 -23 4 -36 10 -32 6 3 10 17 10 31 0 13 5 24 10 24 6 0
10 4 10 9 0 6 -9 9 -20 8 -16 -1 -20 -8 -20 -40z"/>
<path d="M3207 1093 c-15 -14 -6 -33 18 -39 14 -3 22 -10 19 -15 -3 -6 -14 -7
-25 -4 -11 4 -19 2 -19 -4 0 -17 57 -13 64 5 4 10 -4 19 -25 28 -32 13 -25 32
7 19 12 -4 15 -3 10 5 -8 13 -39 16 -49 5z"/>
</g>
</svg>
